<?xml version="1.0" standalone="no"?>
<svg xmlns:xlink="http://www.w3.org/1999/xlink" id="wave" style="transform:rotate(0deg); transition: 0.3s" viewBox="0 0 1440 490" version="1.1" xmlns="http://www.w3.org/2000/svg"><defs><linearGradient id="sw-gradient-0" x1="0" x2="0" y1="1" y2="0"><stop stop-color="rgba(255, 255, 255, 1)" offset="0%"/><stop stop-color="rgba(255, 255, 255, 1)" offset="100%"/></linearGradient></defs><path style="transform:translate(0, 0px); opacity:1" fill="black" d="M0,245L48,261.3C96,278,192,310,288,343C384,376,480,408,576,408.3C672,408,768,376,864,334.8C960,294,1056,245,1152,261.3C1248,278,1344,359,1440,326.7C1536,294,1632,147,1728,122.5C1824,98,1920,196,2016,204.2C2112,212,2208,131,2304,98C2400,65,2496,82,2592,130.7C2688,180,2784,261,2880,285.8C2976,310,3072,278,3168,261.3C3264,245,3360,245,3456,220.5C3552,196,3648,147,3744,122.5C3840,98,3936,98,4032,81.7C4128,65,4224,33,4320,16.3C4416,0,4512,0,4608,24.5C4704,49,4800,98,4896,106.2C4992,114,5088,82,5184,81.7C5280,82,5376,114,5472,130.7C5568,147,5664,147,5760,187.8C5856,229,5952,310,6048,351.2C6144,392,6240,392,6336,351.2C6432,310,6528,229,6624,163.3C6720,98,6816,49,6864,24.5L6912,0L6912,490L6864,490C6816,490,6720,490,6624,490C6528,490,6432,490,6336,490C6240,490,6144,490,6048,490C5952,490,5856,490,5760,490C5664,490,5568,490,5472,490C5376,490,5280,490,5184,490C5088,490,4992,490,4896,490C4800,490,4704,490,4608,490C4512,490,4416,490,4320,490C4224,490,4128,490,4032,490C3936,490,3840,490,3744,490C3648,490,3552,490,3456,490C3360,490,3264,490,3168,490C3072,490,2976,490,2880,490C2784,490,2688,490,2592,490C2496,490,2400,490,2304,490C2208,490,2112,490,2016,490C1920,490,1824,490,1728,490C1632,490,1536,490,1440,490C1344,490,1248,490,1152,490C1056,490,960,490,864,490C768,490,672,490,576,490C480,490,384,490,288,490C192,490,96,490,48,490L0,490Z"/></svg>